<?xml version="1.0" standalone="no"?>
<!DOCTYPE svg PUBLIC "-//W3C//DTD SVG 20010904//EN"
 "http://www.w3.org/TR/2001/REC-SVG-20010904/DTD/svg10.dtd">
<svg version="1.0" xmlns="http://www.w3.org/2000/svg"
 width="683.000000pt" height="683.000000pt" viewBox="0 0 683.000000 683.000000"
 preserveAspectRatio="xMidYMid meet">
<metadata>
Created by potrace 1.11, written by Peter Selinger 2001-2013
</metadata>
<g transform="translate(0.000000,683.000000) scale(0.100000,-0.100000)"
fill="#000000" stroke="none">
<path d="M3225 6824 c-295 -22 -551 -69 -798 -145 -962 -294 -1740 -987 -2139
-1904 -115 -263 -174 -462 -237 -795 -34 -181 -45 -317 -45 -570 0 -277 10
-389 59 -645 116 -607 386 -1156 796 -1620 487 -552 1134 -928 1856 -1079 262
-55 379 -66 703 -66 324 0 441 11 704 66 537 112 1005 335 1457 694 121 96
393 368 489 489 359 452 582 920 694 1457 55 263 66 380 66 704 0 324 -11 441
-66 703 -238 1138 -1036 2072 -2127 2491 -236 91 -593 177 -847 206 -100 11
-481 21 -565 14z"/>
</g>
</svg>
